#!OML:ASF H:\Terrain\Patient Classification 1\Animal2\Wednesday\Animal2.ASF
:FULLY-SPECIFIED
:DEGREES
2770
root 13.1347 17.1775 -10.9284 28.8947 -60.2544 -39.497
lowerback 15.0272 -5.1275 -5.20446
upperback -3.66565 -7.89608 0.106163
thorax -11.7484 -3.34714 4.94867
lowerneck -2.7999 1.26299 11.8969
upperneck -27.1783 -3.26848 -18.1537
head -8.16252 -1.70229 -8.24041
rclavicle 5.48646e-014 4.13472e-014
rhumerus 52.0229 -31.077 -8.69614
rradius 58.5458
rwrist -0.148053
rhand -39.8219 17.2722
rfingers 7.12502
rthumb -12.7961 -12.3156
lclavicle 5.48646e-014 4.13472e-014
lhumerus 54.4332 39.8775 9.4623
lradius 74.2632
lwrist 48.587
lhand -49.4084 22.2062
lfingers 7.12502
lthumb -22.0212 50.9726
rfemur -49.5736 -16.108 7.27851
rtibia 63.9022
rfoot 15.3501 -10.3004
rtoes 42.5244
lfemur -9.47621 19.1157 9.55295
ltibia 48.1546
lfoot -28.8804 8.2235
ltoes -9.27673
2771
root 13.1837 17.202 -10.9183 29.0832 -60.9388 -39.6975
lowerback 15.0191 -5.12013 -5.68724
upperback -3.49558 -7.97589 0.0415834
thorax -11.4874 -3.37094 5.14425
lowerneck -2.25588 1.09426 11.8741
upperneck -27.8901 -3.61619 -18.1279
head -8.57526 -1.8555 -8.25903
rclavicle 9.78021e-014 3.18055e-015
rhumerus 50.8041 -31.4894 -7.37172
rradius 59.0597
rwrist -1.55936
rhand -38.0802 17.2531
rfingers 7.12502
rthumb -11.1166 -12.4324
lclavicle 9.78021e-014 3.18055e-015
lhumerus 55.2436 39.8297 10.8176
lradius 73.6973
lwrist 50.1762
lhand -49.7151 23.5563
lfingers 7.12502
lthumb -22.3156 52.2877
rfemur -51.9029 -16.9117 6.76482
rtibia 65.5444
rfoot 17.4146 -7.7301
rtoes 36.5803
lfemur -9.01937 19.1806 9.0404
ltibia 47.6315
lfoot -28.6467 8.84384
ltoes -7.77621
2772
root 13.2317 17.2272 -10.9041 29.6298 -61.4385 -40.4341
lowerback 15.2777 -5.02192 -5.85841
upperback -3.42585 -7.88225 0.118454
thorax -11.5375 -3.30796 5.32687
lowerneck -1.89878 0.777169 11.484
upperneck -28.1784 -4.09524 -17.9335
head -8.82901 -2.04807 -8.1044
rclavicle -4.37326e-014 -6.36111e-015
rhumerus 49.1999 -31.767 -5.74394
rradius 59.853
rwrist -2.39131
rhand -36.4461 16.6322
rfingers 7.12502
rthumb -9.5402 -13.1319
lclavicle -4.37326e-014 -6.36111e-015
lhumerus 56.1883 39.5078 12.5367
lradius 73.2562
lwrist 51.4696
lhand -50.0374 24.3741
lfingers 7.12502
lthumb -22.625 53.068
rfemur -53.9388 -17.5728 6.49523
rtibia 67.0826
rfoot 18.2757 -6.38447
rtoes 33.2025
lfemur -8.4856 19.2147 8.94598
ltibia 47.1757
lfoot -28.5278 9.3651
ltoes -7.37482
2773
root 13.277 17.255 -10.8978 30.7565 -61.7814 -41.7845
lowerback 15.561 -4.93206 -5.81474
upperback -3.36571 -7.75168 0.270787
thorax -11.6344 -3.23655 5.47
lowerneck -2.04494 0.717922 11.474
upperneck -27.9959 -4.2234 -18.1028
head -8.76023 -2.10621 -8.14819
rclavicle -1.35174e-014 2.54444e-014
rhumerus 47.447 -32.0739 -4.25117
rradius 60.7415
rwrist -2.9524
rhand -34.9334 16.0222
rfingers 7.12502
rthumb -8.08052 -13.8033
lclavicle -1.35174e-014 2.54444e-014
lhumerus 57.0562 39.1627 14.1139
lradius 72.9936
lwrist 52.9315
lhand -50.2161 24.3322
lfingers 7.12502
lthumb -22.7965 53.0052
rfemur -55.9195 -18.0318 6.53116
rtibia 68.5631
rfoot 18.4165 -6.70403
rtoes 34.4082
lfemur -8.01282 19.4204 9.31309
ltibia 46.7821
lfoot -28.3542 9.53429
ltoes -7.67752
2774
root 13.3152 17.2763 -10.9009 31.8129 -62.2705 -42.8617
lowerback 15.6303 -4.94471 -6.03632
upperback -3.26273 -7.81916 0.198852
thorax -11.5318 -3.2634 5.52778
lowerneck -2.14452 0.939262 12.6181
upperneck -27.9934 -4.06847 -18.9395
head -8.72543 -2.09965 -8.70494
rclavicle 2.22639e-014 -1.59028e-014
rhumerus 46.2323 -32.481 -3.73546
rradius 61.3265
rwrist -3.31962
rhand -33.2046 16.2703
rfingers 7.12502
rthumb -6.41174 -13.6126
lclavicle 2.22639e-014 -1.59028e-014
lhumerus 57.7763 38.9316 15.0386
lradius 72.8
lwrist 54.568
lhand -50.0995 24.7958
lfingers 7.12502
lthumb -22.6846 53.4825
rfemur -58.276 -18.5673 6.55105
rtibia 70.03
rfoot 18.785 -6.38806
rtoes 33.6456
lfemur -7.70062 19.8616 9.47076
ltibia 46.4975
lfoot -28.1649 9.66841
ltoes -7.99013
2775
root 13.3556 17.283 -10.8955 32.5817 -62.6365 -43.6547
lowerback 15.7129 -5.06038 -6.14001
upperback -3.08549 -8.00798 0.0271837
thorax -11.3672 -3.36516 5.43493
lowerneck -1.82877 1.15943 14.0445
upperneck -28.3988 -3.95115 -19.8757
head -8.9216 -2.11869 -9.39824
rclavicle 8.82604e-014 3.18055e-015
rhumerus 45.3223 -33.0458 -3.73442
rradius 61.7118
rwrist -3.09917
rhand -31.1684 17.0927
rfingers 7.12502
rthumb -4.44579 -12.8406
lclavicle 8.82604e-014 3.18055e-015
lhumerus 58.4411 38.7488 15.7478
lradius 72.7081
lwrist 56.0351
lhand -50.0121 26.5779
lfingers 7.12502
lthumb -22.6007 55.2748
rfemur -60.6743 -19.4819 6.66846
rtibia 71.4397
rfoot 19.389 -5.47409
rtoes 31.1783
lfemur -7.5248 20.2433 9.54123
ltibia 46.3456
lfoot -28.0297 10.0719
ltoes -9.11413
2776
root 13.3988 17.2844 -10.8862 33.3005 -62.8023 -44.4975
lowerback 15.9611 -5.217 -6.09929
upperback -2.91567 -8.20991 0.0795238
thorax -11.2912 -3.46795 5.53093
lowerneck -2.08946 1.48237 14.5771
upperneck -28.3139 -3.58357 -20.2908
head -8.76478 -1.9896 -9.67787
rclavicle -1.43125e-014 2.22639e-014
rhumerus 44.4902 -33.5344 -3.3972
rradius 62.1512
rwrist -2.77588
rhand -29.7003 17.8449
rfingers 7.12502
rthumb -3.02802 -12.1134
lclavicle -1.43125e-014 2.22639e-014
lhumerus 58.6229 38.6724 16.31
lradius 72.6801
lwrist 57.5421
lhand -50.4957 28.0507
lfingers 7.12502
lthumb -23.0648 56.6904
rfemur -62.813 -20.4223 6.87269
rtibia 72.7419
rfoot 19.7925 -4.83142
rtoes 29.095
lfemur -7.3989 20.6257 9.78989
ltibia 46.291
lfoot -27.8449 10.6361
ltoes -11.8227
2777
root 13.438 17.2891 -10.8794 34.2418 -62.9711 -45.6381
lowerback 16.3416 -5.47582 -6.03233
upperback -2.75732 -8.54625 0.191341
thorax -11.2819 -3.62882 5.72551
lowerneck -2.62075 1.93312 14.674
upperneck -28.1017 -2.99449 -20.37
head -8.4581 -1.74821 -9.72508
rclavicle 7.31528e-014 3.81667e-014
rhumerus 44.175 -33.9123 -3.64612
rradius 62.7962
rwrist -2.82838
rhand -28.5306 18.3038
rfingers 7.12502
rthumb -1.89837 -11.6675
lclavicle 7.31528e-014 3.81667e-014
lhumerus 58.1424 38.7046 16.1331
lradius 72.7021
lwrist 59.0495
lhand -50.9918 28.4361
lfingers 7.12502
lthumb -23.5408 57.0154
rfemur -64.6441 -20.9794 6.99954
rtibia 73.8915
rfoot 19.611 -5.33819
rtoes 30.5047
lfemur -7.17514 21.0601 10.2093
ltibia 46.2861
lfoot -27.7318 10.8841
ltoes -12.732
2778
root 13.472 17.2983 -10.8713 35.3471 -63.1694 -46.8034
lowerback 16.473 -5.7495 -5.96132
upperback -2.64059 -8.89322 0.241298
thorax -11.1832 -3.80393 5.8248
lowerneck -2.81786 2.20746 15.1458
upperneck -28.0286 -2.70464 -20.7566
head -8.32798 -1.65104 -9.97391
rclavicle 3.4191e-014 3.18055e-014
rhumerus 44.1336 -34.3917 -4.52226
rradius 63.4891
rwrist -2.6694
rhand -26.9222 18.7775
rfingers 7.12502
rthumb -0.344909 -11.202
lclavicle 3.4191e-014 3.18055e-014
lhumerus 57.5965 38.6582 15.761
lradius 72.84
lwrist 60.3439
lhand -50.7467 28.997
lfingers 7.12502
lthumb -23.3056 57.6064
rfemur -66.5207 -21.4142 7.14316
rtibia 74.9182
rfoot 19.3586 -6.40278
rtoes 32.7002
lfemur -7.06205 21.3891 10.5326
ltibia 46.2826
lfoot -27.7533 10.7435
ltoes -11.0563
